<mxfile host="app.diagrams.net" agent="Mozilla/5.0 (Macintosh; Intel Mac OS X 10_15_7) AppleWebKit/537.36 (KHTML, like Gecko) Chrome/133.0.0.0 Safari/537.36" version="26.1.0">
  <diagram name="Microservices Architecture" id="0">
    <mxGraphModel dx="239164" dy="113896" grid="1" gridSize="10" guides="1" tooltips="1" connect="1" arrows="1" fold="1" page="1" pageScale="1" pageWidth="827" pageHeight="1169" math="0" shadow="0">
      <root>
        <mxCell id="0" />
        <mxCell id="1" parent="0" />
        <mxCell id="frontend" value="Frontend (React)" style="rounded=1;fillColor=#ADD8E6;strokeColor=#000000;fontStyle=1;" parent="1" vertex="1">
          <mxGeometry x="50" y="200" width="160" height="50" as="geometry" />
        </mxCell>
        <mxCell id="recipeService" value="Recipe Service" style="rounded=1;fillColor=#ADD8E6;strokeColor=#000000;fontStyle=1;" parent="1" vertex="1">
          <mxGeometry x="300" y="180" width="160" height="50" as="geometry" />
        </mxCell>
        <mxCell id="ingredientScanner" value="Meal Planning Service" style="rounded=1;fillColor=#ADD8E6;strokeColor=#000000;fontStyle=1;" parent="1" vertex="1">
          <mxGeometry x="300" y="260" width="160" height="50" as="geometry" />
        </mxCell>
        <mxCell id="mealPlanning" value="Ingredient Scanner Service" style="rounded=1;fillColor=#ADD8E6;strokeColor=#000000;fontStyle=1;" parent="1" vertex="1">
          <mxGeometry x="300" y="100" width="160" height="50" as="geometry" />
        </mxCell>
        <mxCell id="kmrAC--OhDlBXIvYpDEH-15" value="" style="edgeStyle=orthogonalEdgeStyle;rounded=0;orthogonalLoop=1;jettySize=auto;html=1;" edge="1" parent="1" source="shoppingList" target="ingredientScanner">
          <mxGeometry relative="1" as="geometry" />
        </mxCell>
        <mxCell id="shoppingList" value="Shopping List Service" style="rounded=1;fillColor=#ADD8E6;strokeColor=#000000;fontStyle=1;" parent="1" vertex="1">
          <mxGeometry x="300" y="340" width="160" height="50" as="geometry" />
        </mxCell>
        <mxCell id="mongoDB" value="MongoDB (Database)" style="rounded=1;fillColor=#FFD700;strokeColor=#000000;fontStyle=1;" parent="1" vertex="1">
          <mxGeometry x="550" y="200" width="160" height="50" as="geometry" />
        </mxCell>
        <mxCell id="ocrAPI" value="OCR API" style="rounded=1;fillColor=#FFD700;strokeColor=#000000;fontStyle=1;" parent="1" vertex="1">
          <mxGeometry x="550" y="100" width="160" height="50" as="geometry" />
        </mxCell>
        <mxCell id="eventQueue" value="RabbitMQ/Kafka" style="rounded=1;fillColor=#FFD700;strokeColor=#000000;fontStyle=1;" parent="1" vertex="1">
          <mxGeometry x="550" y="300" width="160" height="50" as="geometry" />
        </mxCell>
        <mxCell id="edge1" style="edgeStyle=elbowEdgeStyle;strokeColor=#000000;" parent="1" source="frontend" target="recipeService" edge="1" />
        <mxCell id="edge2" style="edgeStyle=elbowEdgeStyle;strokeColor=#000000;" parent="1" source="frontend" target="ingredientScanner" edge="1" />
        <mxCell id="edge3" style="edgeStyle=elbowEdgeStyle;strokeColor=#000000;" parent="1" source="frontend" target="mealPlanning" edge="1" />
        <mxCell id="edge4" style="edgeStyle=elbowEdgeStyle;strokeColor=#000000;" parent="1" source="frontend" target="shoppingList" edge="1" />
        <mxCell id="edge5" style="edgeStyle=elbowEdgeStyle;strokeColor=#000000;" parent="1" source="recipeService" target="mongoDB" edge="1" />
        <mxCell id="edge6" style="edgeStyle=elbowEdgeStyle;strokeColor=#000000;" parent="1" source="ingredientScanner" target="ocrAPI" edge="1" />
        <mxCell id="edge7" style="edgeStyle=elbowEdgeStyle;strokeColor=#000000;" parent="1" source="ingredientScanner" target="mongoDB" edge="1" />
        <mxCell id="edge8" style="edgeStyle=elbowEdgeStyle;strokeColor=#000000;" parent="1" source="mealPlanning" target="recipeService" edge="1" />
        <mxCell id="edge9" style="edgeStyle=elbowEdgeStyle;strokeColor=#000000;" parent="1" source="shoppingList" target="mealPlanning" edge="1" />
        <mxCell id="edge10" style="edgeStyle=elbowEdgeStyle;strokeColor=#000000;" parent="1" source="mealPlanning" target="eventQueue" edge="1" />
        <mxCell id="edge11" style="edgeStyle=elbowEdgeStyle;strokeColor=#000000;" parent="1" source="shoppingList" target="eventQueue" edge="1" />
        <mxCell id="kmrAC--OhDlBXIvYpDEH-5" value="" style="endArrow=classic;html=1;rounded=0;entryX=0;entryY=0.5;entryDx=0;entryDy=0;" edge="1" parent="1" target="recipeService">
          <mxGeometry width="50" height="50" relative="1" as="geometry">
            <mxPoint x="210" y="220" as="sourcePoint" />
            <mxPoint x="260" y="170" as="targetPoint" />
          </mxGeometry>
        </mxCell>
        <mxCell id="kmrAC--OhDlBXIvYpDEH-6" value="" style="endArrow=classic;html=1;rounded=0;entryX=0;entryY=0.5;entryDx=0;entryDy=0;" edge="1" parent="1" target="ingredientScanner">
          <mxGeometry width="50" height="50" relative="1" as="geometry">
            <mxPoint x="210" y="220" as="sourcePoint" />
            <mxPoint x="260" y="170" as="targetPoint" />
          </mxGeometry>
        </mxCell>
        <mxCell id="kmrAC--OhDlBXIvYpDEH-7" value="" style="endArrow=classic;html=1;rounded=0;entryX=0;entryY=0.5;entryDx=0;entryDy=0;" edge="1" parent="1" target="mealPlanning">
          <mxGeometry width="50" height="50" relative="1" as="geometry">
            <mxPoint x="210" y="220" as="sourcePoint" />
            <mxPoint x="260" y="170" as="targetPoint" />
          </mxGeometry>
        </mxCell>
        <mxCell id="kmrAC--OhDlBXIvYpDEH-8" value="" style="endArrow=classic;html=1;rounded=0;entryX=0;entryY=0.5;entryDx=0;entryDy=0;" edge="1" parent="1" target="shoppingList">
          <mxGeometry width="50" height="50" relative="1" as="geometry">
            <mxPoint x="210" y="220" as="sourcePoint" />
            <mxPoint x="260" y="170" as="targetPoint" />
          </mxGeometry>
        </mxCell>
        <mxCell id="kmrAC--OhDlBXIvYpDEH-9" value="" style="endArrow=classic;html=1;rounded=0;entryX=0;entryY=0.5;entryDx=0;entryDy=0;exitX=1;exitY=0.5;exitDx=0;exitDy=0;" edge="1" parent="1" source="mealPlanning" target="ocrAPI">
          <mxGeometry width="50" height="50" relative="1" as="geometry">
            <mxPoint x="460" y="280" as="sourcePoint" />
            <mxPoint x="510" y="230" as="targetPoint" />
          </mxGeometry>
        </mxCell>
        <mxCell id="kmrAC--OhDlBXIvYpDEH-10" value="" style="endArrow=classic;html=1;rounded=0;entryX=0;entryY=0.5;entryDx=0;entryDy=0;exitX=1;exitY=0.5;exitDx=0;exitDy=0;" edge="1" parent="1" source="ingredientScanner" target="eventQueue">
          <mxGeometry width="50" height="50" relative="1" as="geometry">
            <mxPoint x="460" y="130" as="sourcePoint" />
            <mxPoint x="510" y="80" as="targetPoint" />
          </mxGeometry>
        </mxCell>
        <mxCell id="kmrAC--OhDlBXIvYpDEH-12" value="" style="endArrow=classic;html=1;rounded=0;entryX=0;entryY=0.5;entryDx=0;entryDy=0;exitX=1;exitY=0.5;exitDx=0;exitDy=0;" edge="1" parent="1" source="recipeService" target="mongoDB">
          <mxGeometry width="50" height="50" relative="1" as="geometry">
            <mxPoint x="460" y="200" as="sourcePoint" />
            <mxPoint x="510" y="150" as="targetPoint" />
          </mxGeometry>
        </mxCell>
        <mxCell id="kmrAC--OhDlBXIvYpDEH-13" value="" style="endArrow=classic;html=1;rounded=0;entryX=0.5;entryY=1;entryDx=0;entryDy=0;exitX=0.5;exitY=0;exitDx=0;exitDy=0;" edge="1" parent="1" source="ingredientScanner" target="recipeService">
          <mxGeometry width="50" height="50" relative="1" as="geometry">
            <mxPoint x="370" y="160" as="sourcePoint" />
            <mxPoint x="420" y="110" as="targetPoint" />
          </mxGeometry>
        </mxCell>
        <mxCell id="kmrAC--OhDlBXIvYpDEH-17" value="" style="endArrow=classic;html=1;rounded=0;entryX=0;entryY=0.5;entryDx=0;entryDy=0;exitX=1;exitY=0.5;exitDx=0;exitDy=0;" edge="1" parent="1" source="ingredientScanner" target="mongoDB">
          <mxGeometry width="50" height="50" relative="1" as="geometry">
            <mxPoint x="460" y="280" as="sourcePoint" />
            <mxPoint x="510" y="230" as="targetPoint" />
          </mxGeometry>
        </mxCell>
        <mxCell id="kmrAC--OhDlBXIvYpDEH-20" value="" style="endArrow=classic;html=1;rounded=0;entryX=0;entryY=0.5;entryDx=0;entryDy=0;exitX=1;exitY=0.5;exitDx=0;exitDy=0;" edge="1" parent="1" source="shoppingList" target="eventQueue">
          <mxGeometry width="50" height="50" relative="1" as="geometry">
            <mxPoint x="460" y="370" as="sourcePoint" />
            <mxPoint x="510" y="320" as="targetPoint" />
          </mxGeometry>
        </mxCell>
        <mxCell id="kmrAC--OhDlBXIvYpDEH-21" value="" style="endArrow=classic;html=1;rounded=0;entryX=0;entryY=0.5;entryDx=0;entryDy=0;exitX=1;exitY=0.5;exitDx=0;exitDy=0;" edge="1" parent="1" source="shoppingList" target="mongoDB">
          <mxGeometry width="50" height="50" relative="1" as="geometry">
            <mxPoint x="460" y="360" as="sourcePoint" />
            <mxPoint x="510" y="310" as="targetPoint" />
          </mxGeometry>
        </mxCell>
      </root>
    </mxGraphModel>
  </diagram>
</mxfile>
